<?xml version="1.0" standalone="no"?>
<!DOCTYPE svg PUBLIC "-//W3C//DTD SVG 20010904//EN"
 "http://www.w3.org/TR/2001/REC-SVG-20010904/DTD/svg10.dtd">
<svg version="1.0" xmlns="http://www.w3.org/2000/svg"
 width="500.000000pt" height="500.000000pt" viewBox="0 0 500.000000 500.000000"
 preserveAspectRatio="xMidYMid meet">
<metadata>
Created by potrace 1.14, written by Peter Selinger 2001-2017
</metadata>
<g transform="translate(0.000000,500.000000) scale(0.100000,-0.100000)"
fill="#000000" stroke="none">
<path d="M1680 4894 c-25 -7 -60 -26 -77 -41 -65 -60 -132 -195 -148 -303 -4
-24 -8 -47 -11 -51 -6 -10 -17 -174 -17 -249 0 -56 8 -155 13 -155 1 0 3 -9 5
-19 2 -11 6 -31 10 -45 5 -22 -60 80 -102 160 -7 15 -20 32 -28 39 -8 7 -15
17 -15 23 0 13 -84 112 -140 164 -25 24 -74 57 -110 75 -55 28 -76 33 -135 33
-59 0 -80 -5 -138 -33 -75 -37 -112 -78 -131 -144 -36 -119 21 -251 158 -366
66 -56 76 -64 149 -116 37 -26 67 -49 67 -50 0 -1 -30 -2 -67 -2 -135 -1 -213
-26 -273 -87 -84 -84 -94 -193 -27 -265 59 -63 205 -103 355 -98 83 3 117 -5
78 -20 -22 -8 -101 -114 -125 -166 -42 -93 -19 -216 52 -269 28 -21 43 -24
112 -24 69 0 86 4 126 27 74 44 160 146 218 258 27 55 53 96 55 91 3 -4 2 -11
-1 -15 -4 -3 -8 -14 -9 -24 -1 -9 -4 -30 -8 -47 -14 -69 -21 -146 -21 -250 0
-110 0 -110 38 -172 48 -78 84 -109 145 -122 60 -12 92 -8 158 24 96 47 159
129 184 239 11 48 6 169 -10 240 -5 24 -5 35 1 29 29 -29 147 -271 213 -438
27 -66 52 -129 57 -140 13 -30 80 -228 84 -247 2 -9 9 -27 16 -40 7 -13 12
-24 11 -25 -1 -2 -2 -4 -1 -5 0 -2 2 -12 4 -23 1 -11 14 -70 28 -130 14 -61
28 -131 32 -155 4 -25 12 -77 19 -115 6 -39 8 -87 4 -105 -6 -30 -13 -87 -23
-190 -2 -14 -3 -58 -4 -98 l-1 -73 -61 91 c-118 176 -248 285 -402 334 -26 9
-108 27 -183 41 -229 42 -272 40 -217 -12 16 -15 56 -53 88 -83 31 -30 85 -89
118 -130 71 -87 145 -163 202 -205 22 -17 42 -33 45 -36 8 -10 134 -67 160
-73 96 -21 132 -27 180 -29 l55 -3 1 -139 c3 -243 20 -565 39 -716 16 -126 28
-195 36 -217 6 -15 10 -28 9 -30 -1 -1 1 -15 4 -30 4 -15 8 -38 11 -51 2 -14
9 -29 15 -35 20 -20 31 16 24 84 -7 69 -10 114 -18 245 l-5 81 72 33 c163 76
335 209 429 332 91 119 122 176 213 394 33 78 79 164 110 209 34 47 44 76 26
76 -14 0 -103 -61 -311 -216 -171 -126 -192 -143 -288 -238 -109 -105 -177
-216 -238 -386 -13 -36 -24 -58 -24 -50 -1 8 -4 53 -7 100 -4 47 -7 207 -7
355 -1 298 8 508 29 715 3 25 7 72 10 105 3 33 7 71 10 85 3 14 7 43 10 65 9
72 16 119 27 175 19 102 57 274 78 355 67 255 123 462 150 550 17 55 32 107
34 115 6 25 105 292 110 297 2 2 25 -3 50 -11 67 -23 182 -39 240 -33 70 6
152 -26 338 -136 196 -115 318 -136 389 -67 67 64 44 214 -45 293 -21 18 -21
18 22 13 108 -15 190 -18 229 -7 82 22 129 84 140 182 13 118 -106 209 -271
205 -36 0 -66 2 -66 5 0 4 14 13 32 20 69 28 154 137 178 229 32 121 -9 213
-122 272 -102 53 -290 8 -413 -100 -35 -31 -41 -23 -16 19 47 79 61 155 46
249 -8 58 -33 99 -75 127 -83 57 -196 4 -291 -137 -34 -50 -49 -61 -49 -37 0
24 -49 80 -81 94 -96 40 -183 -24 -218 -164 -6 -21 -19 -74 -31 -118 -29 -115
-40 -189 -45 -316 -3 -62 -8 -115 -12 -118 -36 -27 -50 -171 -26 -275 8 -34
25 -80 38 -103 l23 -42 -48 -108 c-26 -59 -66 -162 -88 -228 -38 -114 -148
-482 -155 -521 -2 -11 -6 -26 -9 -34 -13 -34 -86 -348 -94 -400 -9 -60 -13
-80 -18 -98 -4 -16 -18 -122 -19 -149 0 -16 -10 -7 -13 12 -15 104 -11 87 -57
255 -54 198 -76 268 -117 370 -82 207 -232 483 -299 551 -50 50 -84 103 -42
65 34 -31 172 -103 253 -131 61 -22 176 -13 241 19 85 41 117 98 112 199 -3
80 -54 153 -144 208 -25 15 -136 62 -156 65 -5 1 -28 7 -50 12 l-40 9 75 22
c226 67 391 173 445 287 75 158 -49 326 -245 333 -110 4 -298 -47 -400 -107
-61 -37 -108 -69 -152 -105 -27 -21 -48 -37 -48 -34 0 2 13 33 29 68 28 62 75
200 86 256 17 80 17 204 0 265 -51 185 -172 275 -315 232z"/>
</g>
</svg>
