<?xml version="1.0" standalone="no"?>
<!DOCTYPE svg PUBLIC "-//W3C//DTD SVG 20010904//EN"
 "http://www.w3.org/TR/2001/REC-SVG-20010904/DTD/svg10.dtd">
<svg version="1.0" xmlns="http://www.w3.org/2000/svg"
 width="150.000000pt" height="150.000000pt" viewBox="0 0 150.000000 150.000000"
 preserveAspectRatio="xMidYMid meet">
<metadata>
Created by potrace 1.14, written by Peter Selinger 2001-2017
</metadata>
<g transform="translate(0.000000,150.000000) scale(0.100000,-0.100000)"
fill="#000000" stroke="none">
<path d="M609 1323 c-85 -53 -83 -213 4 -337 24 -34 33 -38 -136 63 -135 79
-180 92 -244 66 -68 -27 -89 -94 -56 -177 43 -110 140 -175 277 -185 l77 -6
-97 -51 c-206 -108 -296 -249 -201 -319 24 -19 31 -19 97 -8 96 17 193 68 262
136 l56 56 -14 -53 c-7 -29 -14 -94 -14 -144 0 -78 3 -96 23 -125 19 -29 29
-34 68 -37 34 -2 52 2 72 18 51 40 62 75 67 210 l5 125 29 -55 c63 -122 135
-180 220 -180 59 0 91 36 81 89 -13 71 -98 198 -187 283 -15 15 -28 29 -28 31
0 2 44 7 98 10 166 10 275 64 259 130 -22 87 -178 132 -305 88 l-53 -18 29 31
c71 76 141 210 142 271 0 47 -25 75 -67 75 -31 0 -45 -10 -107 -72 -51 -52
-84 -97 -114 -156 -39 -77 -42 -81 -42 -49 0 50 -25 174 -45 225 -31 76 -96
103 -156 65z m224 -469 c14 -4 17 -17 17 -75 0 -65 -2 -73 -29 -100 -24 -23
-38 -29 -73 -29 -54 0 -83 19 -98 65 -19 59 18 134 75 148 20 5 74 1 108 -9z"/>
</g>
</svg>
